<svg width="54" height="56" viewBox="0 0 54 56" fill="none" xmlns="http://www.w3.org/2000/svg">
<circle cx="27" cy="27" r="27" fill="#00EF18"/>
<path d="M25.0016 10.23C20.1866 10.23 18.2066 13.605 18.2066 18.195V19.32H20.1866V18.06C20.1866 14.64 21.4916 12.12 24.9566 12.12C28.4216 12.12 29.7266 14.64 29.7266 18.24V19.365C29.7266 22.38 27.9716 24.45 25.1366 24.63H22.9316V26.52H25.0466C28.1066 26.655 29.7266 28.545 29.7266 31.83V34.26C29.7266 37.86 28.4216 40.38 24.9566 40.38C21.4916 40.38 20.1866 37.815 20.1866 34.395V32.505H18.2066V34.305C18.2066 38.895 20.1866 42.27 25.0016 42.27C29.8166 42.27 31.7966 38.895 31.7966 34.305V31.875C31.7966 28.77 30.4466 26.34 27.6116 25.485C30.3116 24.54 31.7966 22.065 31.7966 18.96V18.195C31.7966 13.605 29.8166 10.23 25.0016 10.23Z" fill="#121212"/>
</svg>
