<svg width="54" height="56" viewBox="0 0 54 56" fill="none" xmlns="http://www.w3.org/2000/svg">
<circle cx="27" cy="27" r="27" fill="#00EF18"/>
<path d="M21.2216 12.39H31.1666V10.455H19.3316L18.5216 27.285H20.4566V26.745C21.0866 24.405 22.6616 23.145 24.9566 23.145C28.4216 23.145 29.7716 25.71 29.7716 29.085V34.395C29.7716 37.77 28.4216 40.335 24.9566 40.335C21.5366 40.335 20.1866 37.77 20.1866 34.395V32.595H18.2066V34.305C18.2066 38.85 20.2316 42.27 25.0016 42.27C29.8166 42.27 31.8416 38.85 31.8416 34.305V28.905C31.8416 24.54 30.0866 21.21 25.7216 21.21C23.3816 21.21 21.7166 21.93 20.6366 23.64L21.2216 12.39Z" fill="#121212"/>
</svg>
