<svg width="54" height="56" viewBox="0 0 54 56" fill="none" xmlns="http://www.w3.org/2000/svg">
<circle cx="27" cy="27" r="27" fill="#00EF18"/>
<path d="M25.0487 10.23C20.1437 10.23 18.0737 13.56 18.0737 18.285V34.305C18.0737 38.895 20.1887 42.27 25.0487 42.27C29.8637 42.27 31.9787 38.895 31.9787 34.305V30.435C31.9787 26.025 30.1787 22.74 25.7687 22.74C22.9337 22.74 21.1787 23.865 20.1437 25.62V18.33C20.1437 14.64 21.5387 12.12 25.0937 12.12C28.5587 12.12 29.8637 14.55 29.8637 17.925V18.42H31.8437V18.06C31.8437 13.47 29.8637 10.23 25.0487 10.23ZM25.0487 24.675C28.5137 24.675 29.9087 27.195 29.9087 30.57V34.395C29.9087 37.86 28.5137 40.335 25.0487 40.335C21.5387 40.335 20.1437 37.86 20.1437 34.395V30.57C20.1437 27.195 21.5387 24.675 25.0487 24.675Z" fill="#121212"/>
</svg>
