<svg width="36" height="36" viewBox="0 0 36 36" fill="none" xmlns="http://www.w3.org/2000/svg">
<mask id="mask0" mask-type="alpha" maskUnits="userSpaceOnUse" x="0" y="0" width="36" height="36">
<g clip-path="url(#clip0)">
<path d="M29.8725 19.542C29.2905 18.807 29.457 18.48 29.8725 17.823C29.88 17.8155 34.6845 11.1765 35.1795 8.925L35.1825 8.9235C35.4285 8.103 35.1825 7.5 33.993 7.5H30.057C29.055 7.5 28.593 8.0175 28.3455 8.5965C28.3455 8.5965 26.3415 13.3935 23.5065 16.503C22.5915 17.4015 22.1685 17.6895 21.669 17.6895C21.423 17.6895 21.0405 17.4015 21.0405 16.581V8.9235C21.0405 7.9395 20.76 7.5 19.9305 7.5H13.7415C13.113 7.5 12.7395 7.959 12.7395 8.3865C12.7395 9.3195 14.157 9.534 14.304 12.159V17.8545C14.304 19.1025 14.0775 19.332 13.575 19.332C12.237 19.332 8.9895 14.5155 7.065 9.003C6.6765 7.9335 6.297 7.5015 5.2875 7.5015H1.35C0.2265 7.5015 0 8.019 0 8.598C0 9.621 1.338 14.7075 6.222 21.4275C9.477 26.0145 14.061 28.5 18.231 28.5C20.7375 28.5 21.0435 27.948 21.0435 26.9985C21.0435 22.6155 20.817 22.2015 22.0725 22.2015C22.6545 22.2015 23.6565 22.4895 25.9965 24.702C28.671 27.3255 29.1105 28.5 30.6075 28.5H34.5435C35.6655 28.5 36.234 27.948 35.907 26.859C35.1585 24.5685 30.1005 19.857 29.8725 19.542Z" fill="black"/>
</g>
</mask>
<g mask="url(#mask0)">
<rect x="-5" y="-4" width="47" height="40" fill="white"/>
</g>
<defs>
<clipPath id="clip0">
<rect width="36" height="36" fill="white"/>
</clipPath>
</defs>
</svg>
